<svg xmlns="http://www.w3.org/2000/svg" xmlns:xlink="http://www.w3.org/1999/xlink" width="500" zoomAndPan="magnify" viewBox="0 0 375 374.999991" height="500" preserveAspectRatio="xMidYMid meet" version="1.0"><defs><g/><clipPath id="851cd00da8"><path d="M 375 75 L 375 300 C 375 319.890625 367.097656 338.96875 353.03125 353.03125 C 338.96875 367.097656 319.890625 375 300 375 L 75 375 C 55.109375 375 36.03125 367.097656 21.96875 353.03125 C 7.902344 338.96875 0 319.890625 0 300 L 0 75 C 0 33.578125 33.578125 0 75 0 L 300 0 C 319.890625 0 338.96875 7.902344 353.03125 21.96875 C 367.097656 36.03125 375 55.109375 375 75 Z M 375 75 " clip-rule="nonzero"/></clipPath><clipPath id="c655dbd0dc"><path d="M 0 0 L 375 0 L 375 375 L 0 375 Z M 0 0 " clip-rule="nonzero"/></clipPath><clipPath id="44b3efb440"><path d="M 375 75 L 375 300 C 375 319.890625 367.097656 338.96875 353.03125 353.03125 C 338.96875 367.097656 319.890625 375 300 375 L 75 375 C 55.109375 375 36.03125 367.097656 21.96875 353.03125 C 7.902344 338.96875 0 319.890625 0 300 L 0 75 C 0 33.578125 33.578125 0 75 0 L 300 0 C 319.890625 0 338.96875 7.902344 353.03125 21.96875 C 367.097656 36.03125 375 55.109375 375 75 Z M 375 75 " clip-rule="nonzero"/></clipPath><clipPath id="1708de8225"><rect x="0" width="375" y="0" height="375"/></clipPath></defs><g clip-path="url(#851cd00da8)"><g transform="matrix(1, 0, 0, 1, 0, 0)"><g clip-path="url(#1708de8225)"><g clip-path="url(#c655dbd0dc)"><g clip-path="url(#44b3efb440)"><rect x="-82.5" width="540" fill="#000000" height="539.999987" y="-82.499998" fill-opacity="1"/></g></g></g></g></g><g fill="#ffffff" fill-opacity="1"><g transform="translate(6.684372, 289.842661)"><g><path d="M 17.53125 0 L 17.53125 -202.5625 L 96.796875 -202.5625 C 112.109375 -202.5625 125.203125 -199.679688 136.078125 -193.921875 C 146.953125 -188.171875 155.265625 -180.195312 161.015625 -170 C 166.773438 -159.800781 169.65625 -148 169.65625 -134.59375 C 169.65625 -121.175781 166.734375 -109.390625 160.890625 -99.234375 C 155.046875 -89.085938 146.640625 -81.160156 135.671875 -75.453125 C 124.703125 -69.742188 111.472656 -66.890625 95.984375 -66.890625 L 43.90625 -66.890625 L 43.90625 -100.734375 L 90.40625 -100.734375 C 98.5625 -100.734375 105.378906 -102.160156 110.859375 -105.015625 C 116.347656 -107.867188 120.453125 -111.832031 123.171875 -116.90625 C 125.890625 -121.988281 127.25 -127.882812 127.25 -134.59375 C 127.25 -141.382812 125.890625 -147.269531 123.171875 -152.25 C 120.453125 -157.238281 116.347656 -161.140625 110.859375 -163.953125 C 105.378906 -166.765625 98.515625 -168.171875 90.265625 -168.171875 L 59.140625 -168.171875 L 59.140625 0 Z M 17.53125 0 "/></g></g><g transform="translate(186.136367, 289.842661)"><g><path d="M 92.4375 2.984375 C 75.945312 2.984375 61.675781 0.445312 49.625 -4.625 C 37.570312 -9.695312 28.210938 -17.195312 21.546875 -27.125 C 14.890625 -37.050781 11.421875 -49.21875 11.140625 -63.625 L 51.53125 -63.625 C 51.882812 -56.738281 53.828125 -50.914062 57.359375 -46.15625 C 60.898438 -41.394531 65.660156 -37.8125 71.640625 -35.40625 C 77.628906 -33.007812 84.472656 -31.8125 92.171875 -31.8125 C 99.609375 -31.8125 106.113281 -32.898438 111.6875 -35.078125 C 117.257812 -37.253906 121.582031 -40.289062 124.65625 -44.1875 C 127.738281 -48.082031 129.28125 -52.566406 129.28125 -57.640625 C 129.28125 -62.265625 127.941406 -66.160156 125.265625 -69.328125 C 122.597656 -72.503906 118.65625 -75.222656 113.4375 -77.484375 C 108.226562 -79.753906 101.773438 -81.75 94.078125 -83.46875 L 72.046875 -88.90625 C 54.285156 -93.070312 40.53125 -99.664062 30.78125 -108.6875 C 21.039062 -117.707031 16.171875 -129.554688 16.171875 -144.234375 C 16.171875 -156.472656 19.457031 -167.171875 26.03125 -176.328125 C 32.601562 -185.484375 41.617188 -192.617188 53.078125 -197.734375 C 64.546875 -202.859375 77.710938 -205.421875 92.578125 -205.421875 C 107.617188 -205.421875 120.738281 -202.835938 131.9375 -197.671875 C 143.132812 -192.503906 151.859375 -185.296875 158.109375 -176.046875 C 164.359375 -166.804688 167.617188 -156.066406 167.890625 -143.828125 L 127.921875 -143.828125 C 127.203125 -152.253906 123.691406 -158.820312 117.390625 -163.53125 C 111.085938 -168.25 102.726562 -170.609375 92.3125 -170.609375 C 85.332031 -170.609375 79.300781 -169.585938 74.21875 -167.546875 C 69.144531 -165.515625 65.269531 -162.707031 62.59375 -159.125 C 59.925781 -155.539062 58.59375 -151.441406 58.59375 -146.828125 C 58.59375 -142.023438 60.019531 -138.015625 62.875 -134.796875 C 65.726562 -131.578125 69.671875 -128.898438 74.703125 -126.765625 C 79.734375 -124.640625 85.375 -122.851562 91.625 -121.40625 L 110.125 -116.921875 C 119.09375 -114.921875 127.316406 -112.265625 134.796875 -108.953125 C 142.273438 -105.648438 148.734375 -101.640625 154.171875 -96.921875 C 159.609375 -92.210938 163.773438 -86.640625 166.671875 -80.203125 C 169.566406 -73.773438 171.015625 -66.4375 171.015625 -58.1875 C 171.015625 -45.769531 167.890625 -34.960938 161.640625 -25.765625 C 155.390625 -16.566406 146.414062 -9.472656 134.71875 -4.484375 C 123.03125 0.492188 108.9375 2.984375 92.4375 2.984375 Z M 92.4375 2.984375 "/></g></g></g></svg>